<?xml version="1.0" ?><!DOCTYPE svg  PUBLIC '-//W3C//DTD SVG 1.1//EN'  'http://www.w3.org/Graphics/SVG/1.1/DTD/svg11.dtd'><svg enable-background="new 0 0 128 128" height="128px" id="Layer_1" version="1.1" viewBox="0 0 128 128" width="128px" xml:space="preserve" xmlns="http://www.w3.org/2000/svg" xmlns:xlink="http://www.w3.org/1999/xlink"><g><circle cx="64" cy="64" fill="#9AA99A" r="64"/><path d="M108.527,33.503l-2.05,1.269L31.025,81.158l-7.471,5.357l41.854,41.449C100.102,127.213,128,98.873,128,64   c0-4.249-0.424-8.397-1.214-12.415L108.527,33.503z" fill="#829382"/><path d="M82.389,92.395c0,0,3.58,0.879,4.76-1.602c1.616-3.404,22.436-38.814,22.436-38.814l-24.838-1.173   l-23.037,37.33" fill="#B4BFB4"/><path d="M49.623,29.653c4.369,0,51.111,3.14,58.588,4.152c0.168,2.014-31.996,52.73-25.905,58.59   c-3.053,0.025-40.078-2.506-57.003-5.161c-5.59-0.878-3.304-5.73-1.059-10.2C27.025,71.494,49.623,29.653,49.623,29.653z" fill="#FFFFFF"/><polygon fill="#B4BFB4" points="99.82,37.901 53.035,34.772 46.92,45.864 93.381,49.417  "/><rect fill="#B4BFB4" height="1.001" transform="matrix(0.9985 0.0539 -0.0539 0.9985 2.9447 -4.3024)" width="18.802" x="71.776" y="51.902"/><rect fill="#B4BFB4" height="1" transform="matrix(0.9983 0.0576 -0.0576 0.9983 3.3042 -4.4926)" width="19.027" x="70.018" y="54.532"/><rect fill="#B4BFB4" height="1" transform="matrix(0.9981 0.0615 -0.0615 0.9981 3.6998 -4.6796)" width="19.261" x="68.206" y="57.238"/><rect fill="#B4BFB4" height="1" transform="matrix(0.9978 0.0657 -0.0657 0.9978 4.1392 -4.867)" width="19.501" x="66.344" y="60.022"/><rect fill="#B4BFB4" height="1" transform="matrix(0.9976 0.0699 -0.0699 0.9976 4.6108 -5.0366)" width="19.742" x="64.429" y="62.89"/><rect fill="#B4BFB4" height="1" transform="matrix(0.9973 0.074 -0.074 0.9973 5.111 -5.1821)" width="19.995" x="62.451" y="65.843"/><rect fill="#B4BFB4" height="1" transform="matrix(0.9969 0.0785 -0.0785 0.9969 5.6681 -5.3267)" width="20.253" x="60.418" y="68.887"/><rect fill="#B4BFB4" height="1" transform="matrix(0.9965 0.0832 -0.0832 0.9965 6.2684 -5.4515)" width="20.516" x="58.32" y="72.025"/><rect fill="#B4BFB4" height="1" transform="matrix(0.9961 0.088 -0.088 0.9961 6.9524 -5.6039)" width="20.786" x="56.642" y="75.551"/><rect fill="#B4BFB4" height="1" transform="matrix(0.9957 0.093 -0.093 0.9957 7.6751 -5.7799)" width="21.066" x="55.323" y="78.966"/><rect fill="#B4BFB4" height="0.999" transform="matrix(0.9952 0.0981 -0.0981 0.9952 8.4336 -5.9697)" width="21.351" x="54.242" y="82.27"/><rect fill="#B4BFB4" height="1.001" transform="matrix(0.9946 0.1035 -0.1035 0.9946 9.2604 -6.2402)" width="21.65" x="53.951" y="85.635"/><rect fill="#B4BFB4" height="1" transform="matrix(0.9948 0.1014 -0.1014 0.9948 5.3956 -5.4427)" width="17.958" x="47.231" y="49.827"/><rect fill="#B4BFB4" height="1" transform="matrix(0.9949 0.1006 -0.1006 0.9949 5.6302 -5.201)" width="18.029" x="45.376" y="52.731"/><rect fill="#B4BFB4" height="1" transform="matrix(0.995 0.0998 -0.0998 0.995 5.8671 -4.9655)" width="18.096" x="43.511" y="55.654"/><rect fill="#B4BFB4" height="1" transform="matrix(0.9951 0.099 -0.099 0.9951 6.1015 -4.7316)" width="18.165" x="41.633" y="58.599"/><rect fill="#B4BFB4" height="1" transform="matrix(0.9952 0.0982 -0.0982 0.9952 6.3275 -4.4959)" width="18.237" x="39.74" y="61.563"/><rect fill="#B4BFB4" height="1" transform="matrix(0.9953 0.0973 -0.0973 0.9953 6.5501 -4.2622)" width="18.312" x="37.834" y="64.548"/><rect fill="#B4BFB4" height="1" transform="matrix(0.9953 0.0964 -0.0964 0.9953 6.7727 -4.0325)" width="18.381" x="35.916" y="67.554"/><rect fill="#B4BFB4" height="0.999" transform="matrix(0.9954 0.0955 -0.0955 0.9954 6.983 -3.8005)" width="18.454" x="33.984" y="70.582"/><rect fill="#B4BFB4" height="0.999" transform="matrix(0.9955 0.0947 -0.0947 0.9955 7.2022 -3.5764)" width="18.529" x="32.036" y="73.631"/><polygon fill="#B4BFB4" points="49.692,78.934 30.598,77.189 30.694,76.195 49.789,77.939  "/><rect fill="#B4BFB4" height="1" transform="matrix(0.9957 0.0929 -0.0929 0.9957 7.6544 -3.2747)" width="18.674" x="29.674" y="80.101"/><polygon fill="#B4BFB4" points="48.398,85.434 28.56,83.711 28.657,82.715 48.496,84.438  "/><g><path d="M59.692,44.837l3.45-7.224l0.991,0.069l0.767,3.719c0.191,0.93,0.299,1.782,0.338,2.625l0.027-0.01    c0.338-1.057,0.699-1.989,1.178-3.147l1.215-2.944l0.9,0.062l-3.002,7.508l-1.049-0.118l-0.756-4.18    c-0.154-0.849-0.273-1.692-0.291-2.464l-0.037,0.007c-0.351,0.871-0.723,1.719-1.281,2.922l-1.526,3.278L59.692,44.837z"/><path d="M73.006,42.331l-3.167-0.287l-1.04,2.873l3.652,0.392l-0.291,0.929l-4.759-0.535l2.854-7.598l4.186,0.289l-0.244,0.773    l-3.232-0.237l-0.832,2.303l3.137,0.27L73.006,42.331z"/><path d="M75.202,46.579l0.14-8.123l1.1,0.076l-0.086,3.897c-0.02,1.031-0.064,2.089-0.127,2.927l0.026,0.003    c0.37-0.833,0.903-1.795,1.474-2.819l2.102-3.774l1.139,0.079l0.205,4.029c0.051,1.012,0.087,2.053,0.037,2.993l0.029,0.003    c0.387-0.946,0.837-1.877,1.326-2.897l1.916-3.886l1.17,0.081l-4.105,8.124l-1.285-0.145l-0.178-4.604    c-0.043-1.045-0.047-1.824,0.018-2.603l-0.025-0.002c-0.331,0.746-0.705,1.492-1.274,2.491l-2.38,4.288L75.202,46.579z"/></g></g></svg>